<svg id="Layer_1" data-name="Layer 1" xmlns="http://www.w3.org/2000/svg" viewBox="0 0 1080 1080"><defs><style>.cls-1{fill:#122438;}.cls-2{fill:#006fff;}</style></defs><path class="cls-1" d="M30.07,575.36V345.6H180.54v38.68H75.81v55.85h84.85v38H75.81v58.53H180.54v38.69Z"/><path class="cls-1" d="M263.73,579.06a79.19,79.19,0,0,1-21.87-2.86,47,47,0,0,1-17.4-9.08,51,51,0,0,1-12.59-16.32q-5.15-10.09-7.79-24.72a193.46,193.46,0,0,1-2.65-34.15q0-28.92,7.12-48.78T231.25,413q15.58-10.25,41.43-10.26,5,0,11.6.51t12.93,1.34c4.19.57,7.62,1.07,10.27,1.52l.14-58H352l-.14,227.18H308.14l-.33-9.76A121.25,121.25,0,0,1,280,576.87,63.33,63.33,0,0,1,263.73,579.06ZM275,541.38A56.14,56.14,0,0,0,287.1,540a108.56,108.56,0,0,0,11.6-3.2,68.47,68.47,0,0,0,8.78-3.53V442.82a70.18,70.18,0,0,0-8-1.18c-3.32-.34-6.74-.67-10.28-1s-6.74-.5-9.61-.5q-12.93,0-20.05,6.05t-10.11,17.66q-3,11.61-3,28.09a120.91,120.91,0,0,0,2,24.05q2,9.6,5.8,15.14A21.88,21.88,0,0,0,263.4,539,28.23,28.23,0,0,0,275,541.38Z"/><path class="cls-1" d="M441.38,579.06q-21.56,0-33.31-9.25T391.5,541.72q-4.81-18.84-4.81-47.43V406.48h44.08v85.79q0,17.84,1.82,28.26t7.46,14.8q5.64,4.38,16.24,4.37A66.19,66.19,0,0,0,475.51,537a88.77,88.77,0,0,0,14.25-5.38V406.48h44.08V575.36H490.1V564.93a135.76,135.76,0,0,1-22.38,10.26Q456.62,579.06,441.38,579.06Z"/><path class="cls-1" d="M78.49,730.79q-14.56,0-23.94-3.73a32,32,0,0,1-14.83-11.55q-5.46-7.83-7.55-19.93a200.46,200.46,0,0,1,0-57.88q2.09-12.11,7.55-19.93a32.6,32.6,0,0,1,15-11.65q9.56-3.81,24.48-3.82a115.11,115.11,0,0,1,12.55.73q6.56.74,12.65,1.73c4.06.67,7.56,1.36,10.47,2.09l-.73,20c-2.43-.48-5.46-.94-9.1-1.36s-7.34-.76-11.1-1-7.28-.37-10.56-.37c-5.82,0-10.56.73-14.19,2.19a16.83,16.83,0,0,0-8.47,7.27,35.36,35.36,0,0,0-4.09,13.2,152.41,152.41,0,0,0-1.09,19.93,150.72,150.72,0,0,0,1.09,19.75,35.61,35.61,0,0,0,4,13.1,16.9,16.9,0,0,0,8.46,7.28q5.55,2.28,14.47,2.28,7.28,0,16.11-.82t14.65-1.55l.55,19.84q-4.36.92-10.38,1.91t-12.74,1.64Q85,730.79,78.49,730.79Z"/><path class="cls-1" d="M130.54,728.79V600.12h24.2V640.7c2.07-.73,4.52-1.48,7.37-2.27s5.83-1.49,8.92-2.09a44.12,44.12,0,0,1,8.46-.91q9.64,0,15.93,2.45a20.86,20.86,0,0,1,9.92,7.83q3.63,5.37,5.19,14.1a123.6,123.6,0,0,1,1.54,21.12v47.86H187.69v-46a84.23,84.23,0,0,0-1.1-15.2q-1.08-5.73-4.09-8.28c-2-1.7-5.07-2.55-9.19-2.55a42.51,42.51,0,0,0-6.74.55,56.47,56.47,0,0,0-6.64,1.45q-3.18.91-5.19,1.64v68.43Z"/><path class="cls-1" d="M270.49,730.79q-15.47,0-24.84-5.09A29.52,29.52,0,0,1,232.09,710q-4.18-10.63-4.18-27.57,0-16.38,4.36-26.66a30,30,0,0,1,13.84-15.29q9.45-5,24.38-5,15.12,0,24.48,5a30.51,30.51,0,0,1,13.84,15.29q4.45,10.28,4.45,26.66,0,16.93-4.18,27.57a29.52,29.52,0,0,1-13.56,15.75Q286.15,730.79,270.49,730.79Zm0-20q7.65,0,11.47-2.82t5.19-9.1a80.24,80.24,0,0,0,1.36-16.47q0-10-1.63-15.92T281.41,658c-2.54-1.69-6.18-2.55-10.92-2.55s-8.22.86-10.82,2.55-4.46,4.53-5.55,8.47-1.64,9.25-1.64,15.92a80.24,80.24,0,0,0,1.36,16.47q1.36,6.28,5.19,9.1T270.49,710.77Z"/><path class="cls-1" d="M329.82,622.87V602.12h24.39v20.75Zm0,105.92V637.43H354v91.36Z"/><path class="cls-1" d="M411.54,730.79q-15.66,0-24.48-4.82t-12.37-15.56q-3.56-10.74-3.55-28.21,0-17.3,4-27.57t13-14.75q9-4.46,23.57-4.45a86,86,0,0,1,8.92.54c3.4.37,6.83.82,10.28,1.37s6.4,1.06,8.83,1.54l-.91,19.48c-2.31-.24-4.91-.46-7.83-.64s-5.73-.36-8.46-.55-4.94-.27-6.64-.27q-7.83,0-12.29,2.46a13.13,13.13,0,0,0-6.18,8q-1.74,5.55-1.73,14.83a63.22,63.22,0,0,0,1.63,16q1.65,6,5.92,8.55t12.65,2.55q2.55,0,6.73-.28t8.65-.63c3-.24,5.61-.43,7.92-.55l.72,19.48c-2.43.48-5.34,1-8.73,1.54s-6.83,1-10.29,1.37A91.14,91.14,0,0,1,411.54,730.79Z"/><path class="cls-1" d="M491.62,730.79q-15.11,0-23.93-5.09A28.58,28.58,0,0,1,455,710.23q-3.82-10.38-3.82-26,0-16.92,4.82-27.66a33.08,33.08,0,0,1,14.11-15.93q9.27-5.19,22.93-5.18,20.21,0,30.48,10.19t10.28,32.21l-1.09,13.47H475.61q.18,10.2,4.18,15.29t13.83,5.09q5.64,0,12.38-.27t13.38-.64q6.63-.36,11.37-.72L531.3,727q-4.56.74-11.47,1.64t-14.29,1.55Q498.17,730.79,491.62,730.79Zm-16-55h34q0-12.37-3.91-17.29t-12.65-4.91a19.19,19.19,0,0,0-9.65,2.18,13.75,13.75,0,0,0-5.82,7.1Q475.6,667.82,475.61,675.83Z"/><path class="cls-2" d="M559.15,734.59V348.18H738.7L761,387.88H604.23V536.63h117.5v39.7H604.23V734.59Z"/><path class="cls-2" d="M754.7,734.59l120-189-120-197.4H806L902.93,512,1001,348.18h48.47L930,543.9l119.48,190.69H998.17L901.8,575.77,803.17,734.59Z"/></svg>