<svg id="Layer_1" data-name="Layer 1" xmlns="http://www.w3.org/2000/svg" viewBox="0 0 1080 444.27"><defs><style>.cls-1{fill:#122438;}.cls-2{fill:#006fff;}</style></defs><path class="cls-1" d="M30.6,257.64V27.88H181.07V66.56H76.34v55.85h84.84v38H76.34V219H181.07v38.68Z"/><path class="cls-1" d="M264.26,261.34a78.83,78.83,0,0,1-21.88-2.86A47.14,47.14,0,0,1,225,249.4a51,51,0,0,1-12.59-16.31q-5.14-10.09-7.79-24.73A193.46,193.46,0,0,1,202,174.21q0-28.92,7.13-48.77t22.7-30.11q15.57-10.26,41.43-10.26,5,0,11.6.5t12.92,1.35q6.3.84,10.28,1.51l.13-58h44.42l-.14,227.18H308.67l-.33-9.75a114.8,114.8,0,0,1-12.1,5.88,112.45,112.45,0,0,1-15.74,5.39A63.87,63.87,0,0,1,264.26,261.34Zm11.27-37.67a56.14,56.14,0,0,0,12.09-1.35,105.64,105.64,0,0,0,11.6-3.2,66.67,66.67,0,0,0,8.79-3.53V125.1a70.06,70.06,0,0,0-8-1.18l-10.27-1q-5.31-.5-9.61-.5-12.93,0-20.05,6.05T250,146.12q-3,11.61-3,28.09a121.77,121.77,0,0,0,2,24.06q2,9.58,5.8,15.14a21.82,21.82,0,0,0,9.12,7.9A28.24,28.24,0,0,0,275.53,223.67Z"/><path class="cls-1" d="M441.9,261.34q-21.54,0-33.31-9.25T392,224q-4.8-18.83-4.8-47.43V88.77H431.3v85.78q0,17.83,1.82,28.26t7.46,14.8q5.63,4.38,16.24,4.37A66.29,66.29,0,0,0,476,219.29a88.55,88.55,0,0,0,14.25-5.38V88.77h44.08V257.64H490.62V247.21a134.85,134.85,0,0,1-22.37,10.26Q457.15,261.34,441.9,261.34Z"/><path class="cls-1" d="M79,413.08q-14.57,0-23.93-3.74a32,32,0,0,1-14.83-11.55q-5.46-7.83-7.56-19.93A172.45,172.45,0,0,1,30.6,349a173.83,173.83,0,0,1,2.09-29q2.1-12.11,7.56-19.93a32.49,32.49,0,0,1,15-11.64q9.56-3.82,24.48-3.83a115.29,115.29,0,0,1,12.56.73Q98.86,286,105,287t10.46,2.09l-.73,20q-3.63-.72-9.1-1.36t-11.1-1c-3.76-.24-7.28-.37-10.55-.37q-8.75,0-14.2,2.19a16.78,16.78,0,0,0-8.46,7.28,35.36,35.36,0,0,0-4.1,13.19A152.52,152.52,0,0,0,56.08,349a150.72,150.72,0,0,0,1.09,19.75,35.54,35.54,0,0,0,4,13.1,16.85,16.85,0,0,0,8.46,7.28q5.55,2.28,14.47,2.28,7.27,0,16.11-.82t14.65-1.55l.54,19.84q-4.36.92-10.37,1.91T92.3,412.44Q85.57,413.07,79,413.08Z"/><path class="cls-1" d="M131.06,411.07V282.4h24.21V323q3.09-1.1,7.37-2.28c2.85-.79,5.82-1.48,8.92-2.09a44,44,0,0,1,8.46-.91q9.64,0,15.93,2.45a20.83,20.83,0,0,1,9.91,7.83q3.64,5.37,5.19,14.11a123.29,123.29,0,0,1,1.55,21.11v47.86H188.21V365a84.37,84.37,0,0,0-1.09-15.2q-1.1-5.73-4.1-8.28T173.83,339a42.39,42.39,0,0,0-6.73.55,56,56,0,0,0-6.64,1.45q-3.19.92-5.19,1.64v68.43Z"/><path class="cls-1" d="M271,413.08q-15.47,0-24.84-5.1a29.54,29.54,0,0,1-13.56-15.74q-4.2-10.65-4.19-27.58,0-16.38,4.37-26.66a30,30,0,0,1,13.83-15.29q9.47-5,24.39-5,15.11,0,24.48,5A30.49,30.49,0,0,1,309.33,338q4.46,10.29,4.46,26.66,0,16.93-4.19,27.58A29.56,29.56,0,0,1,296.05,408Q286.68,413.07,271,413.08Zm0-20q7.65,0,11.47-2.82t5.18-9.11A80.14,80.14,0,0,0,289,364.66q0-10-1.64-15.92t-5.46-8.46q-3.82-2.55-10.92-2.55-6.91,0-10.83,2.55t-5.55,8.46Q253,354.65,253,364.66a80.14,80.14,0,0,0,1.37,16.47q1.37,6.28,5.19,9.11T271,393.06Z"/><path class="cls-1" d="M330.35,305.15V284.4h24.39v20.75Zm0,105.92V319.71h24.21v91.36Z"/><path class="cls-1" d="M412.07,413.08q-15.66,0-24.48-4.83t-12.38-15.56q-3.56-10.74-3.55-28.21,0-17.28,4-27.57t13-14.74q9-4.46,23.57-4.46a86,86,0,0,1,8.92.54c3.39.37,6.82.82,10.28,1.37s6.4,1.06,8.83,1.55l-.91,19.47c-2.31-.24-4.92-.46-7.83-.64l-8.46-.54c-2.73-.18-4.95-.28-6.65-.28q-7.81,0-12.28,2.46a13.11,13.11,0,0,0-6.19,8q-1.72,5.55-1.73,14.83a63.1,63.1,0,0,0,1.64,16q1.63,6,5.92,8.55t12.64,2.55q2.55,0,6.74-.27t8.64-.64c3-.24,5.61-.42,7.92-.55l.73,19.48c-2.43.48-5.34,1-8.74,1.54s-6.82,1-10.28,1.37A91.52,91.52,0,0,1,412.07,413.08Z"/><path class="cls-1" d="M492.15,413.08q-15.12,0-23.94-5.1a28.53,28.53,0,0,1-12.64-15.47q-3.82-10.38-3.83-26,0-16.92,4.83-27.66a33.06,33.06,0,0,1,14.1-15.93q9.29-5.17,22.93-5.18,20.2,0,30.49,10.19t10.28,32.21l-1.09,13.47H476.13q.18,10.2,4.19,15.29t13.83,5.1q5.64,0,12.37-.28t13.38-.63q6.65-.37,11.38-.73l.54,16.92q-4.55.74-11.46,1.64t-14.29,1.55C501.16,412.86,496.51,413.08,492.15,413.08Zm-16-55h34q0-12.37-3.91-17.29t-12.65-4.91a19.26,19.26,0,0,0-9.64,2.18,13.82,13.82,0,0,0-5.83,7.1Q476.14,350.11,476.13,358.11Z"/><path class="cls-2" d="M559.67,416.87V30.46H739.23l22.33,39.7H604.76V218.91H722.25v39.71H604.76V416.87Z"/><path class="cls-2" d="M755.23,416.87l120-189-120-197.4h51.29l96.93,163.85,98.07-163.85H1050L930.5,226.18,1050,416.87H998.7L902.33,258.06,803.7,416.87Z"/></svg>