<svg id="Layer_1" data-name="Layer 1" xmlns="http://www.w3.org/2000/svg" viewBox="0 0 1080 444.27"><defs><style>.cls-1{fill:#edf4f9;}.cls-2{fill:#006fff;}</style></defs><path class="cls-1" d="M30.31,257.4V27.64H180.77V66.32H76v55.85h84.85v38H76v58.54H180.77V257.4Z"/><path class="cls-1" d="M264,261.1a78.83,78.83,0,0,1-21.88-2.86,47,47,0,0,1-17.4-9.08,51,51,0,0,1-12.59-16.31q-5.15-10.09-7.79-24.73A193.46,193.46,0,0,1,201.66,174q0-28.92,7.12-48.77t22.71-30.11q15.57-10.26,41.42-10.26,5,0,11.6.5t12.93,1.35c4.19.56,7.62,1.06,10.27,1.51l.14-58h44.41l-.13,227.18H308.38l-.33-9.75a114.8,114.8,0,0,1-12.1,5.88,112.45,112.45,0,0,1-15.74,5.39A63.87,63.87,0,0,1,264,261.1Zm11.26-37.67a56.16,56.16,0,0,0,12.1-1.35,105.64,105.64,0,0,0,11.6-3.2,66.46,66.46,0,0,0,8.78-3.53V124.86a69.83,69.83,0,0,0-7.95-1.18l-10.27-1q-5.31-.49-9.62-.5-12.92,0-20.05,6t-10.11,17.66q-3,11.61-3,28.09a121,121,0,0,0,2,24.06q2,9.58,5.8,15.14a21.86,21.86,0,0,0,9.11,7.9A28.3,28.3,0,0,0,275.23,223.43Z"/><path class="cls-1" d="M441.61,261.1q-21.56,0-33.31-9.25t-16.57-28.09q-4.82-18.82-4.81-47.43V88.53H431v85.78q0,17.83,1.83,28.26t7.45,14.8q5.64,4.38,16.24,4.37a66.31,66.31,0,0,0,19.23-2.69A88.55,88.55,0,0,0,490,213.67V88.53h44.08V257.4H490.33V247A134.85,134.85,0,0,1,468,257.23Q456.85,261.1,441.61,261.1Z"/><path class="cls-1" d="M78.72,412.84q-14.56,0-23.93-3.74A32,32,0,0,1,40,397.55q-5.46-7.83-7.55-19.93a171.4,171.4,0,0,1-2.09-28.85,172.76,172.76,0,0,1,2.09-29q2.09-12.11,7.55-19.93a32.52,32.52,0,0,1,15-11.64q9.56-3.82,24.48-3.83a115.29,115.29,0,0,1,12.56.73q6.54.74,12.65,1.73t10.46,2.09l-.73,20q-3.65-.72-9.1-1.36t-11.1-1c-3.76-.24-7.28-.37-10.56-.37q-8.73,0-14.19,2.19A16.78,16.78,0,0,0,61,315.65a35.18,35.18,0,0,0-4.1,13.19,152.52,152.52,0,0,0-1.09,19.93,150.72,150.72,0,0,0,1.09,19.75,35.55,35.55,0,0,0,4,13.1,16.84,16.84,0,0,0,8.47,7.28q5.55,2.28,14.47,2.28,7.28,0,16.1-.82t14.65-1.55l.55,19.84q-4.37.92-10.38,1.91T92,412.2Q85.28,412.83,78.72,412.84Z"/><path class="cls-1" d="M130.77,410.83V282.16H155v40.59c2.06-.73,4.51-1.49,7.37-2.28s5.82-1.48,8.91-2.09a44.14,44.14,0,0,1,8.47-.91q9.65,0,15.92,2.45a20.86,20.86,0,0,1,9.92,7.83q3.65,5.37,5.19,14.11A123.29,123.29,0,0,1,212.31,363v47.86H187.92v-46a85.3,85.3,0,0,0-1.09-15.2q-1.1-5.73-4.1-8.28c-2-1.7-5.07-2.55-9.19-2.55a42.39,42.39,0,0,0-6.73.55,56.2,56.2,0,0,0-6.65,1.45q-3.18.92-5.18,1.64v68.43Z"/><path class="cls-1" d="M270.73,412.84q-15.48,0-24.85-5.1A29.58,29.58,0,0,1,232.32,392q-4.19-10.65-4.18-27.58,0-16.38,4.37-26.66a30,30,0,0,1,13.83-15.29q9.47-5,24.39-5,15.11,0,24.48,5A30.58,30.58,0,0,1,309,337.76q4.45,10.29,4.46,26.66,0,16.93-4.19,27.58a29.54,29.54,0,0,1-13.56,15.74Q286.38,412.83,270.73,412.84Zm0-20c5.09,0,8.92-.94,11.46-2.82s4.28-4.92,5.19-9.11a80.24,80.24,0,0,0,1.36-16.47q0-10-1.63-15.92T281.65,340q-3.82-2.55-10.92-2.55c-4.62,0-8.22.85-10.83,2.55s-4.46,4.52-5.55,8.46-1.64,9.25-1.64,15.92a80.24,80.24,0,0,0,1.36,16.47c.92,4.19,2.64,7.23,5.19,9.11S265.63,392.82,270.73,392.82Z"/><path class="cls-1" d="M330.06,304.91V284.16h24.39v20.75Zm0,105.92V319.47h24.2v91.36Z"/><path class="cls-1" d="M411.77,412.84q-15.64,0-24.48-4.83t-12.37-15.56q-3.56-10.74-3.55-28.21,0-17.28,4-27.57t13-14.74q9-4.46,23.57-4.46a85.85,85.85,0,0,1,8.91.54c3.4.37,6.83.82,10.29,1.37s6.4,1.06,8.82,1.55l-.91,19.47c-2.3-.24-4.91-.46-7.82-.64l-8.47-.54c-2.73-.18-4.94-.28-6.64-.28q-7.83,0-12.28,2.46a13.11,13.11,0,0,0-6.19,8q-1.74,5.55-1.73,14.83a63.1,63.1,0,0,0,1.64,16q1.64,6,5.91,8.55t12.65,2.55c1.7,0,3.94-.09,6.74-.27s5.67-.4,8.64-.64,5.61-.42,7.92-.55l.72,19.48c-2.42.48-5.34,1-8.73,1.54s-6.83,1-10.28,1.37A91.7,91.7,0,0,1,411.77,412.84Z"/><path class="cls-1" d="M491.85,412.84q-15.11,0-23.93-5.1a28.54,28.54,0,0,1-12.65-15.47q-3.82-10.38-3.82-26,0-16.92,4.82-27.66a33.13,33.13,0,0,1,14.11-15.93q9.28-5.17,22.93-5.18,20.2,0,30.49,10.19t10.28,32.21L533,373.34H475.84q.18,10.2,4.18,15.29t13.84,5.1q5.64,0,12.37-.28t13.38-.63q6.64-.37,11.37-.73l.55,16.92q-4.56.74-11.47,1.64t-14.28,1.55Q498.4,412.83,491.85,412.84Zm-16-55h34q0-12.37-3.91-17.29t-12.65-4.91a19.3,19.3,0,0,0-9.65,2.18,13.8,13.8,0,0,0-5.82,7.1Q475.83,349.87,475.84,357.87Z"/><path class="cls-2" d="M559.38,416.63V30.22H738.94l22.33,39.7H604.47V218.67H722v39.71H604.47V416.63Z"/><path class="cls-2" d="M754.94,416.63l120-189-120-197.4h51.28l96.94,163.85,98.06-163.85h48.47L930.21,225.94l119.48,190.69H998.41L902,257.82,803.41,416.63Z"/></svg>