<?xml version="1.0" encoding="utf-8"?>
<!-- Generator: Adobe Illustrator 25.0.0, SVG Export Plug-In . SVG Version: 6.00 Build 0)  -->
<svg version="1.1" id="Layer_1" xmlns="http://www.w3.org/2000/svg" xmlns:xlink="http://www.w3.org/1999/xlink" x="0px" y="0px"
	 viewBox="0 0 64 64" style="enable-background:new 0 0 64 64;" xml:space="preserve">
<g>
	<path d="M58.6,3.5h-39c-2,0-3.6,1.6-3.6,3.6v34.1h-10c-2,0-3.6,1.6-3.6,3.6v6.9c0,4.9,3.9,8.8,8.8,8.8h42.3c4.9,0,8.8-3.9,8.8-8.8
		V7.2C62.2,5.2,60.6,3.5,58.6,3.5z M16,51.8c0,2.7-2.2,4.9-4.9,4.9c-2.7,0-4.9-2.2-4.9-4.9v-6.6H16V51.8z M29.4,13.2h19.5
		c1.1,0,1.9,0.9,1.9,1.9c0,1.1-0.9,1.9-1.9,1.9H29.4c-1.1,0-1.9-0.9-1.9-1.9C27.4,14.1,28.2,13.2,29.4,13.2z M29.4,24.5h19.5
		c1.1,0,1.9,0.9,1.9,1.9c0,1.1-0.9,1.9-1.9,1.9H29.4c-1.1,0-1.9-0.9-1.9-1.9C27.4,25.4,28.2,24.5,29.4,24.5z M29.4,39.7
		c-1.1,0-1.9-0.9-1.9-1.9c0-1.1,0.9-1.9,1.9-1.9h19.5c1.1,0,1.9,0.9,1.9,1.9c0,1.1-0.9,1.9-1.9,1.9H29.4z M29.4,51
		c-1.1,0-1.9-0.9-1.9-1.9c0-1.1,0.9-1.9,1.9-1.9h19.5c1.1,0,1.9,0.9,1.9,1.9c0,1.1-0.9,1.9-1.9,1.9H29.4z"/>
</g>
</svg>
