<?xml version="1.0" encoding="utf-8"?>
<!-- Generator: Adobe Illustrator 25.0.0, SVG Export Plug-In . SVG Version: 6.00 Build 0)  -->
<svg version="1.1" id="Layer_1" xmlns="http://www.w3.org/2000/svg" xmlns:xlink="http://www.w3.org/1999/xlink" x="0px" y="0px"
	 viewBox="0 0 24 24" style="enable-background:new 0 0 24 24;" xml:space="preserve">
<g>
	<path d="M20.6,2.5h-13c-0.7,0-1.2,0.5-1.2,1.2v11.4H3c-0.7,0-1.2,0.5-1.2,1.2v2.3c0,1.6,1.3,2.9,2.9,2.9h14.1
		c1.6,0,2.9-1.3,2.9-2.9V3.7C21.8,3.1,21.3,2.5,20.6,2.5z M6.4,18.6c0,0.9-0.7,1.6-1.6,1.6c-0.9,0-1.6-0.7-1.6-1.6v-2.2h3.3V18.6z
		 M10.9,5.7h6.5C17.7,5.7,18,6,18,6.4C18,6.8,17.7,7,17.4,7h-6.5c-0.4,0-0.6-0.3-0.6-0.6C10.2,6,10.5,5.7,10.9,5.7z M10.9,9.5h6.5
		c0.4,0,0.6,0.3,0.6,0.6c0,0.4-0.3,0.6-0.6,0.6h-6.5c-0.4,0-0.6-0.3-0.6-0.6C10.2,9.8,10.5,9.5,10.9,9.5z M10.9,14.6
		c-0.4,0-0.6-0.3-0.6-0.6c0-0.4,0.3-0.6,0.6-0.6h6.5c0.4,0,0.6,0.3,0.6,0.6c0,0.4-0.3,0.6-0.6,0.6H10.9z M10.9,18.3
		c-0.4,0-0.6-0.3-0.6-0.6c0-0.4,0.3-0.6,0.6-0.6h6.5c0.4,0,0.6,0.3,0.6,0.6c0,0.4-0.3,0.6-0.6,0.6H10.9z"/>
</g>
</svg>
