<?xml version="1.0" encoding="utf-8"?>
<!-- Generator: Adobe Illustrator 25.0.0, SVG Export Plug-In . SVG Version: 6.00 Build 0)  -->
<svg version="1.1" id="Layer_1" xmlns="http://www.w3.org/2000/svg" xmlns:xlink="http://www.w3.org/1999/xlink" x="0px" y="0px"
	 viewBox="0 0 24 24" style="enable-background:new 0 0 24 24;" xml:space="preserve">
<g>
	<g>
		<path d="M10.4,16.3c-0.3-1.4-1.3-2.5-2.8-2.8c-0.3-0.1-0.7-0.1-1.3-0.1c-0.6,0-1,0-1.3,0.1c-1.4,0.3-2.5,1.3-2.8,2.8
			c-0.1,0.3-0.1,0.7-0.1,1.3c0,0.6,0,1,0.1,1.3c0.3,1.4,1.3,2.5,2.8,2.8c0.3,0.1,0.7,0.1,1.3,0.1c0.6,0,1,0,1.3-0.1
			c1.4-0.3,2.5-1.3,2.8-2.8c0.1-0.3,0.1-0.7,0.1-1.3C10.5,17,10.5,16.7,10.4,16.3z M8.5,18.5c-0.1,0.6-0.6,1.1-1.2,1.2
			c-0.1,0-0.4,0-0.9,0c-0.5,0-0.8,0-0.9,0c-0.6-0.1-1.1-0.6-1.2-1.2c0-0.1,0-0.4,0-0.9c0-0.5,0-0.8,0-0.9c0.1-0.6,0.6-1.1,1.2-1.2
			c0.1,0,0.4,0,0.9,0c0.5,0,0.8,0,0.9,0c0.6,0.1,1.1,0.6,1.2,1.2c0,0.1,0,0.4,0,0.9C8.5,18.2,8.5,18.4,8.5,18.5z"/>
	</g>
	<g>
		<path d="M10.4,5.1c-0.3-1.4-1.3-2.5-2.8-2.8C7.3,2.2,7,2.2,6.4,2.2c-0.6,0-1,0-1.3,0.1C3.7,2.6,2.6,3.7,2.3,5.1
			C2.2,5.4,2.2,5.8,2.2,6.4c0,0.6,0,1,0.1,1.3c0.3,1.4,1.3,2.5,2.8,2.8c0.3,0.1,0.7,0.1,1.3,0.1c0.6,0,1,0,1.3-0.1
			c1.4-0.3,2.5-1.3,2.8-2.8c0.1-0.3,0.1-0.7,0.1-1.3C10.5,5.8,10.5,5.4,10.4,5.1z M8.5,7.3C8.3,7.9,7.9,8.3,7.3,8.5
			c-0.1,0-0.4,0-0.9,0c-0.5,0-0.8,0-0.9,0C4.9,8.3,4.4,7.9,4.3,7.3c0-0.1,0-0.4,0-0.9c0-0.5,0-0.8,0-0.9c0.1-0.6,0.6-1.1,1.2-1.2
			c0.1,0,0.4,0,0.9,0c0.5,0,0.8,0,0.9,0c0.6,0.1,1.1,0.6,1.2,1.2c0,0.1,0,0.4,0,0.9C8.5,6.9,8.5,7.2,8.5,7.3z"/>
	</g>
	<g>
		<path d="M21.7,5.1c-0.3-1.4-1.3-2.5-2.8-2.8c-0.3-0.1-0.7-0.1-1.3-0.1c-0.6,0-1,0-1.3,0.1c-1.4,0.3-2.5,1.3-2.8,2.8
			c-0.1,0.3-0.1,0.7-0.1,1.3c0,0.6,0,1,0.1,1.3c0.3,1.4,1.3,2.5,2.8,2.8c0.3,0.1,0.7,0.1,1.3,0.1c0.6,0,1,0,1.3-0.1
			c1.4-0.3,2.5-1.3,2.8-2.8c0.1-0.3,0.1-0.7,0.1-1.3C21.8,5.8,21.8,5.4,21.7,5.1z M19.7,7.3c-0.1,0.6-0.6,1.1-1.2,1.2
			c-0.1,0-0.4,0-0.9,0c-0.5,0-0.8,0-0.9,0c-0.6-0.1-1.1-0.6-1.2-1.2c0-0.1,0-0.4,0-0.9c0-0.5,0-0.8,0-0.9c0.1-0.6,0.6-1,1.2-1.2
			c0.1,0,0.4,0,0.9,0c0.5,0,0.8,0,0.9,0c0.6,0.1,1.1,0.6,1.2,1.2c0,0.1,0,0.4,0,0.9C19.8,6.9,19.8,7.2,19.7,7.3z"/>
	</g>
	<g>
		<path d="M20.8,19.4c0.4,0.4,0.4,1,0,1.4c-0.4,0.4-1,0.4-1.4,0L17.6,19l-1.8,1.8c-0.4,0.4-1,0.4-1.4,0c-0.4-0.4-0.4-1,0-1.4
			l1.8-1.8l-1.8-1.8c-0.4-0.4-0.4-1,0-1.4c0.4-0.4,1-0.4,1.4,0l1.8,1.8l1.8-1.8c0.4-0.4,1-0.4,1.4,0c0.4,0.4,0.4,1,0,1.4L19,17.6
			L20.8,19.4z"/>
	</g>
</g>
</svg>
