<?xml version="1.0" encoding="utf-8"?>
<!-- Generator: Adobe Illustrator 25.0.0, SVG Export Plug-In . SVG Version: 6.00 Build 0)  -->
<svg version="1.1" id="Layer_1" xmlns="http://www.w3.org/2000/svg" xmlns:xlink="http://www.w3.org/1999/xlink" x="0px" y="0px"
	 viewBox="0 0 24 24" style="enable-background:new 0 0 24 24;" xml:space="preserve">
<path d="M19.7,8.8h0.6c0.5,0,1-0.4,1-0.9c0.1-0.5-0.3-1-0.9-1.1c0,0-0.1,0-0.1,0h-4.2V4.9c0-1.6-1.3-2.9-2.9-2.9h-2.6
	C9.1,2,7.8,3.3,7.8,4.9v1.9H3.7c-0.5,0-1,0.4-1,0.9C2.6,8.2,3,8.7,3.5,8.8c0,0,0.1,0,0.1,0h0.6v10.3c0,1.6,1.3,2.9,2.9,2.9h9.7
	c1.6,0,2.9-1.3,2.9-2.9V8.8z M9.7,4.9c0-0.5,0.4-1,1-1h2.6c0.5,0,1,0.4,1,1v1.9H9.7V4.9z M17.8,19.1c0,0.5-0.4,1-1,1H7.2
	c-0.5,0-1-0.4-1-1V8.8h11.6V19.1z"/>
</svg>
