<?xml version="1.0" encoding="utf-8"?>
<!-- Generator: Adobe Illustrator 25.0.0, SVG Export Plug-In . SVG Version: 6.00 Build 0)  -->
<svg version="1.1" id="Layer_1" xmlns="http://www.w3.org/2000/svg" xmlns:xlink="http://www.w3.org/1999/xlink" x="0px" y="0px"
	 viewBox="0 0 24 24" style="enable-background:new 0 0 24 24;" xml:space="preserve">
<path d="M12,22c5.5,0,10-4.5,10-10S17.5,2,12,2S2,6.5,2,12S6.5,22,12,22z M12,3.9c4.4,0,8.1,3.6,8.1,8.1c0,1.9-0.6,3.6-1.7,5
	l-2.8-2.8c0.4-0.6,0.6-1.4,0.6-2.2c0-2.2-1.6-4-3.8-4.2c-0.5,0-1,0.3-1.1,0.9c0,0.3,0.1,0.5,0.2,0.7c0.2,0.2,0.4,0.3,0.7,0.3
	c1.2,0.1,2,1.1,2,2.2c0,1.2-1,2.3-2.3,2.3c-1.2,0-2.1-0.9-2.2-2c0-0.5-0.5-0.9-1-0.9c0,0-0.1,0-0.1,0c-0.3,0-0.5,0.1-0.7,0.3
	c-0.2,0.2-0.2,0.5-0.2,0.7c0.2,2.2,2,3.8,4.2,3.8c0.8,0,1.6-0.2,2.2-0.6l2.8,2.8c-1.4,1.1-3.1,1.7-5,1.7c-4.4,0-8.1-3.6-8.1-8.1
	S7.6,3.9,12,3.9L12,3.9z"/>
</svg>
