<?xml version="1.0" encoding="utf-8"?>
<!-- Generator: Adobe Illustrator 25.0.0, SVG Export Plug-In . SVG Version: 6.00 Build 0)  -->
<svg version="1.1" id="Layer_1" xmlns="http://www.w3.org/2000/svg" xmlns:xlink="http://www.w3.org/1999/xlink" x="0px" y="0px"
	 viewBox="0 0 24 24" style="enable-background:new 0 0 24 24;" xml:space="preserve">
<path d="M12,19c3.9,0,7-3.1,7-7s-3.1-7-7-7s-7,3.1-7,7S8.1,19,12,19z M12,6.4c3.1,0,5.6,2.5,5.6,5.6c0,1.3-0.5,2.5-1.2,3.5l-1.9-1.9
	c0.3-0.4,0.4-1,0.4-1.5c0-1.5-1.1-2.8-2.6-2.9c-0.4,0-0.7,0.2-0.7,0.6c0,0.2,0,0.4,0.1,0.5c0.1,0.1,0.3,0.2,0.5,0.2
	c0.8,0.1,1.4,0.8,1.4,1.6c0,0.9-0.7,1.6-1.6,1.6c-0.8,0-1.5-0.6-1.6-1.4c0-0.4-0.3-0.6-0.7-0.6c0,0,0,0-0.1,0
	c-0.2,0-0.3,0.1-0.5,0.2c-0.1,0.1-0.2,0.3-0.1,0.5c0.1,1.5,1.4,2.6,2.9,2.6c0.6,0,1.1-0.2,1.5-0.4l1.9,1.9c-1,0.8-2.2,1.2-3.5,1.2
	c-3.1,0-5.6-2.5-5.6-5.6S8.9,6.4,12,6.4L12,6.4z"/>
</svg>
