<?xml version="1.0" encoding="utf-8"?>
<!-- Generator: Adobe Illustrator 25.0.0, SVG Export Plug-In . SVG Version: 6.00 Build 0)  -->
<svg version="1.1" id="Layer_1" xmlns="http://www.w3.org/2000/svg" xmlns:xlink="http://www.w3.org/1999/xlink" x="0px" y="0px"
	 viewBox="0 0 24 24" style="enable-background:new 0 0 24 24;" xml:space="preserve">
<path d="M4.9,18.8h3.2c1.2,0,2.2,0.7,2.7,1.8c0.3,0.7,1,1,1.7,0.7c0.3-0.1,0.6-0.4,0.7-0.7c0.4-1.1,1.5-1.8,2.7-1.8h3.2
	c1.6,0,2.9-1.3,2.9-2.9V5.5c0-1.6-1.3-2.9-2.9-2.9h-3.2c-1.4,0-2.7,0.6-3.6,1.6L12,4.6l-0.2-0.3c-0.9-1.1-2.2-1.7-3.6-1.7H4.9
	C3.3,2.6,2,3.9,2,5.5v10.3C2,17.5,3.3,18.8,4.9,18.8z M13,7.5c0-1.6,1.3-2.9,2.9-2.9h3.2c0.5,0,1,0.4,1,1v10.3c0,0.5-0.4,1-1,1h-3.2
	c-0.8,0-1.7,0.2-2.4,0.6L13,17.8V7.5z M3.9,5.5c0-0.5,0.4-1,1-1h3.2c1.6,0,2.9,1.3,2.9,2.9v10.3l-0.5-0.3c-0.7-0.4-1.6-0.6-2.4-0.6
	H4.9c-0.5,0-1-0.4-1-1V5.5z"/>
</svg>
