<?xml version="1.0" encoding="utf-8"?>
<!-- Generator: Adobe Illustrator 25.0.0, SVG Export Plug-In . SVG Version: 6.00 Build 0)  -->
<svg version="1.1" id="Layer_1" xmlns="http://www.w3.org/2000/svg" xmlns:xlink="http://www.w3.org/1999/xlink" x="0px" y="0px"
	 viewBox="0 0 64 64" style="enable-background:new 0 0 64 64;" xml:space="preserve">
<g>
	<path d="M58.9,19.9c-0.6,0-1.2,0.1-1.8,0.1l-3.7,6.3v24.2c-6.8,0.2-13.6,1.5-20.1,4V23.1c2.3-0.9,4.7-1.8,7.2-2.4l2.3-3.9
		c-3.8,0.8-7.5,1.9-11.1,3.4c-7.5-3.2-15.4-4.7-23.5-4.7c-0.9,0-1.6,0.8-1.6,1.6V20H6.4c-0.8,0-1.5-0.1-2.1-0.1
		c-0.9,0-1.6,0.8-1.6,1.6v33.2c0,0.9,0.8,1.6,1.6,1.6c9.2,0,18.2,1.8,26.7,5.5c0.2,0.1,0.4,0.1,0.6,0.1c0.2,0,0.4-0.1,0.7-0.1
		c8.5-3.6,17.4-5.5,26.6-5.5c0.9,0,1.6-0.7,1.6-1.6V21.5C60.5,20.6,59.8,19.9,58.9,19.9z M29.9,54.5c-6.5-2.5-13.3-3.9-20.1-4V18.8
		c6.9,0.2,13.7,1.6,20.1,4.2V54.5z"/>
	<path d="M14.3,27.1c3.5,0.4,7,1.1,10.4,2.1c0.1,0.1,0.3,0.1,0.4,0.1c0.7,0,1.4-0.5,1.6-1.2c0.3-0.9-0.3-1.8-1.1-2
		c-3.6-1.1-7.3-1.8-11-2.2c-0.9-0.1-1.7,0.6-1.8,1.5c-0.1,0.4,0.1,0.9,0.4,1.2C13.5,26.9,13.9,27.1,14.3,27.1z"/>
	<path d="M14.3,33.4c3.5,0.4,7,1.1,10.4,2.1c0.1,0.1,0.3,0.1,0.4,0.1c0.8,0,1.4-0.5,1.6-1.2c0.3-0.9-0.3-1.8-1.1-2.1
		c-3.6-1.1-7.3-1.8-11-2.2c-0.9,0-1.6,0.6-1.8,1.5c-0.1,0.4,0.1,0.9,0.4,1.2C13.5,33.2,13.9,33.4,14.3,33.4z"/>
	<path d="M14.3,39.8c3.5,0.4,7,1.1,10.4,2.1c0.1,0.1,0.3,0.1,0.4,0.1c0.8,0,1.4-0.5,1.6-1.2c0.3-0.9-0.3-1.8-1.1-2.1
		c-3.6-1.1-7.3-1.8-11-2.2c-0.9-0.1-1.7,0.6-1.8,1.5c-0.1,0.4,0.1,0.9,0.4,1.2C13.5,39.5,13.9,39.7,14.3,39.8z"/>
	<path d="M14.3,46c3.5,0.4,7,1.1,10.4,2.1c0.1,0.1,0.3,0.1,0.4,0.1c0.8,0,1.4-0.4,1.6-1.2c0.3-0.9-0.3-1.8-1.1-2.1
		c-3.6-1.1-7.3-1.8-11-2.2c-0.9-0.1-1.7,0.6-1.8,1.5c-0.1,0.4,0.1,0.9,0.4,1.2C13.5,45.8,13.9,46,14.3,46z"/>
	<path d="M48.4,36.5L48.4,36.5c-3.7,0.4-7.4,1.1-11,2.2c-0.4,0.1-0.8,0.4-1,0.8c-0.2,0.4-0.3,0.8-0.1,1.3c0.2,0.7,0.9,1.2,1.6,1.2
		c0.1,0,0.3,0,0.4-0.1c3.4-1,6.9-1.7,10.4-2.1c0.4-0.1,0.8-0.3,1.1-0.6c0.3-0.3,0.4-0.8,0.4-1.2C50.2,37,49.3,36.4,48.4,36.5z"/>
	<path d="M48.4,42.7L48.4,42.7c-3.7,0.4-7.4,1.1-11,2.2c-0.4,0.1-0.8,0.4-1,0.8c-0.2,0.4-0.3,0.8-0.1,1.3c0.2,0.7,0.9,1.2,1.6,1.2
		c0.1,0,0.3,0,0.4-0.1c3.4-1,6.9-1.7,10.4-2.1c0.4-0.1,0.8-0.3,1.1-0.6c0.3-0.3,0.4-0.8,0.4-1.2C50.2,43.3,49.3,42.7,48.4,42.7z"/>
	<rect x="41.7" y="13.6" transform="matrix(0.5071 -0.8619 0.8619 0.5071 9.9367 52.0395)" width="17.4" height="7.5"/>
	<path d="M60.9,4.8l-4.6-2.7c-0.6-0.3-1.2-0.1-1.5,0.4l-1.8,2.9l6.5,3.8l1.7-2.9C61.6,5.8,61.4,5.1,60.9,4.8z"/>
	<path d="M42,33.6l4.4-2.3c0.2-0.1,0.3-0.3,0.4-0.4l0.9-1.6l-6.5-3.9l-0.9,1.6c-0.1,0.2-0.2,0.4-0.1,0.6l0.1,4.9
		C40.4,33.5,41.2,34,42,33.6z"/>
</g>
</svg>
