<?xml version="1.0" encoding="utf-8"?>
<!-- Generator: Adobe Illustrator 25.0.0, SVG Export Plug-In . SVG Version: 6.00 Build 0)  -->
<svg version="1.1" id="Layer_1" xmlns="http://www.w3.org/2000/svg" xmlns:xlink="http://www.w3.org/1999/xlink" x="0px" y="0px"
	 viewBox="0 0 24 24" style="enable-background:new 0 0 24 24;" xml:space="preserve">
<path d="M12,11.6c2.7,0,4.8-2.2,4.8-4.8S14.7,2,12,2S7.2,4.1,7.2,6.8S9.3,11.6,12,11.6z M12,3.9c1.6,0,2.9,1.3,2.9,2.9
	S13.6,9.7,12,9.7S9.1,8.4,9.1,6.8S10.4,3.9,12,3.9z"/>
<path d="M3.5,22L3.5,22c0.2,0,0.5,0,0.7-0.2c0.2-0.2,0.4-0.4,0.4-0.7c0.3-2.8,2.7-4.9,5.5-4.9h3.8c2.8,0,5.2,2.1,5.5,4.9
	c0.1,0.5,0.5,0.9,1,0.9c0,0,0.1,0,0.1,0c0.3,0,0.5-0.2,0.7-0.4c0.2-0.2,0.2-0.5,0.2-0.7c-0.4-3.8-3.6-6.7-7.4-6.7h-3.8
	c-3.8,0-7,2.9-7.4,6.7c0,0.3,0,0.5,0.2,0.7C3,21.8,3.3,21.9,3.5,22L3.5,22z"/>
</svg>
