<?xml version="1.0" encoding="utf-8"?>
<!-- Generator: Adobe Illustrator 25.0.0, SVG Export Plug-In . SVG Version: 6.00 Build 0)  -->
<svg version="1.1" id="Layer_1" xmlns="http://www.w3.org/2000/svg" xmlns:xlink="http://www.w3.org/1999/xlink" x="0px" y="0px"
	 viewBox="0 0 64 64" style="enable-background:new 0 0 64 64;" xml:space="preserve">
<g>
	<path d="M49.4,33.2C49.2,32.8,49,32.4,49,32c-0.2-2.5-0.9-4.7-2.1-6.8c-0.4,0.3-0.9,0.4-1.3,0.6l-4.5,1.4c-2.9,0.8-5.9,1.3-8.9,1.3
		c-3,0-6-0.4-8.9-1.3l-4.6-1.4c-0.4-0.1-0.8-0.3-1.1-0.4h-0.1c-1.3,2.4-2.1,5.2-2.1,8.1c0,5.6,2.7,11,6.8,14.5
		c0.5,0.4,0.8,1,0.8,1.6v9.7c0,0.8,0.6,1.4,1.3,1.5L38.9,62c0.8,0.1,1.6-0.6,1.6-1.5v-6.8c0-0.4,0.4-0.8,0.8-0.8h5.1
		c1.6,0,2.8-1.3,2.8-2.8v-6.8c0-0.3,0.3-0.6,0.5-0.6h2.5c1.5,0,2.4-1.6,1.6-2.9L49.4,33.2z"/>
	<path d="M53.5,7.9L35.1,2.4C34.1,2.2,33.2,2,32.2,2c-0.9,0-1.9,0.1-2.8,0.4L10.9,7.9c-1.3,0.4-1.3,2.2,0,2.6l0.8,0.2v7h-0.2
		c-0.3,0-0.6,0.3-0.6,0.6v3c0,0.3,0.3,0.6,0.6,0.6h0.1l-0.9,1.9c-0.2,0.4,0.1,0.8,0.5,0.8h2.9c0.4,0,0.7-0.4,0.5-0.8l-0.9-1.9h0.1
		c0.3,0,0.6-0.3,0.6-0.6v-3c0-0.3-0.3-0.6-0.6-0.6h-0.2v-6.4l4.2,1.3V19c0,1.3,0.9,2.4,2.1,2.8l4.6,1.3c5.1,1.5,10.4,1.5,15.4,0
		l4.6-1.3c1.3-0.4,2.1-1.5,2.1-2.8v-6.4l7-2.1C54.8,10.1,54.8,8.3,53.5,7.9z"/>
</g>
</svg>
