<?xml version="1.0" encoding="utf-8"?>
<!-- Generator: Adobe Illustrator 25.0.0, SVG Export Plug-In . SVG Version: 6.00 Build 0)  -->
<svg version="1.1" id="Layer_1" xmlns="http://www.w3.org/2000/svg" xmlns:xlink="http://www.w3.org/1999/xlink" x="0px" y="0px"
	 viewBox="0 0 24 24" style="enable-background:new 0 0 24 24;" xml:space="preserve">
<g>
	<g>
		<path d="M18.2,16.6c0.2,0.2,0.3,0.5,0.3,0.8c0,0.3-0.1,0.6-0.3,0.8c-0.4,0.4-1.2,0.4-1.6,0L12,13.6l-4.6,4.6
			c-0.4,0.4-1.2,0.4-1.6,0c-0.2-0.2-0.3-0.5-0.3-0.8c0-0.3,0.1-0.6,0.3-0.8l4.6-4.6L5.8,7.4C5.6,7.2,5.5,6.9,5.5,6.6
			c0-0.3,0.1-0.6,0.3-0.8C6,5.6,6.3,5.5,6.6,5.5s0.6,0.1,0.8,0.3l4.6,4.6l4.6-4.6c0.2-0.2,0.5-0.3,0.8-0.3s0.6,0.1,0.8,0.3
			c0.2,0.2,0.3,0.5,0.3,0.8c0,0.3-0.1,0.6-0.3,0.8L13.6,12L18.2,16.6z"/>
	</g>
</g>
</svg>
